<svg id="Layer_1" data-name="Layer 1" xmlns="http://www.w3.org/2000/svg" viewBox="0 0 102.73 102.73"><defs><style>.cls-1{fill:#448aa9;}.cls-2,.cls-3,.cls-5{fill:none;stroke-miterlimit:10;}.cls-2{stroke:#439ab5;}.cls-3{stroke:#d3bf6e;}.cls-3,.cls-5{stroke-width:6px;}.cls-4{fill:#fff;}.cls-5{stroke:#fff;}.cls-6{fill:#9ad0ba;}</style></defs><title>TF-Favicon</title><rect class="cls-1" width="102.73" height="102.73"/><line class="cls-2" x1="71.51" y1="16.36" x2="71.51" y2="86.31"/><line class="cls-2" x1="51.54" y1="16.21" x2="51.54" y2="86.16"/><line class="cls-2" x1="91.11" y1="62.92" x2="11.24" y2="62.92"/><line class="cls-2" x1="91.48" y1="39.65" x2="11.6" y2="39.65"/><rect class="cls-2" x="11.24" y="16.01" width="80.06" height="70.34"/><line class="cls-3" x1="31.48" y1="39.3" x2="31.48" y2="16.01"/><line class="cls-3" x1="71.51" y1="39.3" x2="71.51" y2="16.01"/><circle class="cls-4" cx="71.43" cy="16.01" r="3.14"/><circle class="cls-4" cx="31.48" cy="16.01" r="3.14"/><line class="cls-5" x1="51.54" y1="62.89" x2="51.54" y2="16.01"/><line class="cls-5" x1="31.48" y1="16.01" x2="71.43" y2="16.01"/><rect class="cls-4" x="28.08" y="12.29" width="46.77" height="7.48" rx="3.38"/><rect class="cls-6" x="4.08" y="59.5" width="54.8" height="7.48" rx="3.38" transform="translate(94.72 31.76) rotate(90)"/><rect class="cls-6" x="28.08" y="35.58" width="46.77" height="7.48" rx="3.38"/><rect class="cls-6" x="28.08" y="59.22" width="26.86" height="7.48" rx="3.38"/></svg>